
<svg width="66"  height="57" viewBox="0 0 57 66" fill="none" xmlns="http://www.w3.org/2000/svg">
<path d="M48.3834 59.6031V64.2065C46.0688 65.0035 43.5856 65.4377 41.0118 65.4377C28.4262 65.4377 18.1826 55.1941 18.1826 42.6085V12.0928H22.4711V42.6085C22.4711 52.8327 30.7876 61.1401 41.0118 61.1401C43.6232 61.1401 46.1232 60.5932 48.3834 59.6031Z" fill="#8C1C40"/>
<path d="M42.2182 27.5593V31.8724C47.6096 32.4751 51.8151 37.0603 51.8151 42.6111C51.8151 48.5702 46.9668 53.4172 41.0077 53.4172C35.0487 53.4172 30.2003 48.5702 30.2003 42.6111V12.0928H25.908V42.6124C25.908 50.938 32.6835 57.7109 41.0077 57.7109C49.332 57.7109 56.1075 50.938 56.1075 42.6124C56.1075 34.6925 49.98 28.1775 42.2182 27.5593Z" fill="#8C1C40"/>
<path d="M41.0082 35.2371C39.9092 35.2371 38.8633 35.4808 37.9263 35.9136V4.36625H26.3374V0H22.0451V4.36625H10.4562V35.9136C9.51787 35.4795 8.47329 35.2371 7.37428 35.2371C3.3087 35.2371 0 38.5471 0 42.6127C0 46.6783 3.3087 49.9844 7.37428 49.9844C11.4398 49.9844 14.7486 46.6783 14.7486 42.6127V8.65991H33.6353V42.6127C33.6353 46.6783 36.944 49.9844 41.0095 49.9844C45.0751 49.9844 48.3838 46.6783 48.3838 42.6127C48.3825 38.5471 45.0738 35.2371 41.0082 35.2371ZM7.38465 45.692C5.6791 45.692 4.29108 44.304 4.29108 42.5984C4.29108 40.8942 5.6791 39.5062 7.38465 39.5062C9.09019 39.5062 10.4769 40.8942 10.4769 42.5984C10.4769 44.3053 9.09019 45.692 7.38465 45.692ZM41.0082 45.692C39.3027 45.692 37.9147 44.304 37.9147 42.5984C37.9147 40.8942 39.3027 39.5062 41.0082 39.5062C42.7138 39.5062 44.1005 40.8942 44.1005 42.5984C44.1005 44.3053 42.7138 45.692 41.0082 45.692Z" fill="#A2764E"/>
</svg>


